<?xml version="1.0" encoding="iso-8859-1"?>
<!-- Uploaded to: SVG Repo, www.svgrepo.com, Generator: SVG Repo Mixer Tools -->
<svg fill="#000000" height="800px" width="800px" version="1.1" id="Layer_1" xmlns="http://www.w3.org/2000/svg" xmlns:xlink="http://www.w3.org/1999/xlink" 
	 viewBox="0 0 512 512" xml:space="preserve">
<g>
	<g>
		<path d="M274.1,12.935h-36.204c-7.581,0-13.218,6.425-11.587,13.83l16.351,57.722h26.68l16.347-57.722
			C287.318,19.362,281.681,12.935,274.1,12.935z"/>
	</g>
</g>
<g>
	<g>
		<path d="M430.907,120.6v355.363c27.031-3.959,54.062-9,81.093-15.152v-325.06C484.969,129.6,457.938,124.559,430.907,120.6z"/>
	</g>
</g>
<g>
	<g>
		<path d="M0,135.752v325.061c27.031,6.15,54.062,11.192,81.093,15.152V120.6C54.062,124.559,27.031,129.6,0,135.752z"/>
	</g>
</g>
<g>
	<g>
		<path d="M284.715,109.929h-57.428c-13.291,0-26.937,0.324-39.658,0.844v375.016c12.721,0.52,26.366,0.984,39.658,0.984h57.428
			c13.291,0,26.937-0.464,39.658-0.984V110.773C311.652,110.253,298.006,109.929,284.715,109.929z"/>
	</g>
</g>
<g>
	<g>
		<polygon points="103.354,104.671 103.354,491.891 165.366,499.065 165.366,97.496 		"/>
	</g>
</g>
<g>
	<g>
		<polygon points="346.634,97.496 346.634,499.065 408.646,491.891 408.646,104.671 		"/>
	</g>
</g>
</svg>