<?xml version="1.0" encoding="iso-8859-1"?>
<!-- Uploaded to: SVG Repo, www.svgrepo.com, Generator: SVG Repo Mixer Tools -->
<svg height="800px" width="800px" version="1.1" id="Layer_1" xmlns="http://www.w3.org/2000/svg" xmlns:xlink="http://www.w3.org/1999/xlink" 
	 viewBox="0 0 512 512" xml:space="preserve">
<circle style="fill:#C1321F;" cx="256" cy="256" r="256"/>
<path style="fill:#A82116;" d="M504.215,318.854L278.869,93.508l-18.435,9.147l-9.147-9.147l-4.803,6.585l-5.337,22.618
	l71.799,71.799l-6.082,32.865l-58.096-58.096l-63.733,65.746l-33.666,50.521l12.405,7.23l-37.362,98.157l-26.719-5.07
	l122.518,123.913c11.059,1.458,22.335,2.224,33.792,2.224C375.696,512,476.194,429.847,504.215,318.854z"/>
<path style="fill:#E6F3FF;" d="M228.419,103.874c0-7.616,6.175-13.79,13.791-13.79c7.616,0,13.791,6.173,13.791,13.79
	c0-7.616,6.175-13.79,13.791-13.79s13.791,6.173,13.791,13.79c0,13.186-27.582,28.96-27.582,28.96S228.419,117.803,228.419,103.874z
	"/>
<g>
	<path style="fill:#CFDBE6;" d="M256.002,103.874c0-7.616,6.175-13.79,13.791-13.79s13.791,6.173,13.791,13.79
		c0,13.186-27.582,28.96-27.582,28.96V103.874z"/>
	<path style="fill:#CFDBE6;" d="M365.747,253.221l-43.718-107.787l-58.794,23.847l43.718,107.787
		c5.932,14.626,21.535,22.419,36.44,19.006l35.43,87.35c1.058,2.608-0.198,5.582-2.808,6.641l-11.809,4.791
		c-2.608,1.058-3.867,4.032-2.808,6.641l0,0c1.058,2.61,4.032,3.867,6.64,2.808l42.517-17.246c2.608-1.058,3.867-4.032,2.808-6.641
		c-1.058-2.61-4.032-3.867-6.641-2.808l-11.81,4.791c-2.61,1.058-5.582-0.198-6.641-2.808l-35.428-87.349
		C365.914,284.307,371.679,267.847,365.747,253.221z"/>
</g>
<path style="fill:#F9B54C;" d="M337.673,208.877c-18.006,0.798-34.413,5.535-49.428,13.028l21.323,52.572
	c5.88,14.496,22.397,21.48,36.893,15.601c14.496-5.88,21.48-22.397,15.601-36.893l-18.613-45.889
	C341.635,208.129,339.709,208.684,337.673,208.877z"/>
<path style="fill:#E6F3FF;" d="M146.254,253.221l43.718-107.787l58.794,23.847l-43.718,107.787
	c-5.932,14.626-21.535,22.419-36.44,19.006l-35.43,87.35c-1.058,2.608,0.198,5.582,2.808,6.641l11.809,4.791
	c2.608,1.058,3.867,4.032,2.808,6.641l0,0c-1.058,2.61-4.032,3.867-6.64,2.808l-42.517-17.246c-2.608-1.058-3.867-4.032-2.808-6.641
	c1.058-2.61,4.032-3.867,6.64-2.808l11.81,4.791c2.61,1.058,5.582-0.198,6.64-2.808l35.428-87.349
	C146.089,284.307,140.322,267.847,146.254,253.221z"/>
<path style="fill:#FFD15D;" d="M174.328,208.877c18.006,0.798,34.413,5.535,49.428,13.028l-21.323,52.572
	c-5.88,14.496-22.397,21.48-36.893,15.601c-14.496-5.879-21.48-22.397-15.601-36.893l18.613-45.889
	C170.367,208.129,172.292,208.684,174.328,208.877z"/>
</svg>