<?xml version="1.0" encoding="utf-8"?>

<!DOCTYPE svg PUBLIC "-//W3C//DTD SVG 1.1//EN" "http://www.w3.org/Graphics/SVG/1.1/DTD/svg11.dtd">
<!-- Uploaded to: SVG Repo, www.svgrepo.com, Generator: SVG Repo Mixer Tools -->
<svg height="800px" width="800px" version="1.1" id="_x32_" xmlns="http://www.w3.org/2000/svg" xmlns:xlink="http://www.w3.org/1999/xlink" 
	 viewBox="0 0 512 512"  xml:space="preserve">
<style type="text/css">
	.st0{fill:#000000;}
</style>
<g>
	<path class="st0" d="M421.419,129.61c4.908-0.017,9.895-1.801,13.783-5.352l52.474-47.836c4.137-3.768,6.535-9.07,6.663-14.654
		l0.009-0.473c0-5.419-2.145-10.629-5.991-14.463l-23.179-23.183c-3.85-3.858-9.061-5.991-14.475-6l-0.469,0.008l0.004,0.008
		c-5.606,0.124-10.891,2.522-14.666,6.655l-47.832,52.474c-3.552,3.892-5.348,8.871-5.344,13.783c0,5.211,2.025,10.504,6,14.463
		l18.561,18.561C410.926,127.568,416.199,129.593,421.419,129.61z M398.202,90.577c0-1.144,0.381-2.232,1.211-3.136l47.836-52.474
		c0.872-0.946,2.071-1.494,3.327-1.51l0.129-0.017c0,0,0,0,0.004,0c1.236,0.017,2.418,0.489,3.282,1.369l23.196,23.192
		c0.871,0.863,1.36,2.058,1.373,3.286l-0.013,0.124c-0.024,1.261-0.568,2.481-1.514,3.344l-52.47,47.828
		c-0.908,0.829-1.983,1.211-3.14,1.219c-1.216-0.008-2.382-0.448-3.303-1.369L399.562,93.88
		C398.642,92.951,398.206,91.789,398.202,90.577z"/>
	<polygon class="st0" points="452.004,60.042 451.884,60.067 451.987,60.059 	"/>
	<path class="st0" d="M319.241,145.674c0,0-1.444,1.444-3.866,3.867c-4.186-3.303-10.244-3.062-14.119,0.796
		c-3.858,3.867-4.095,9.933-0.805,14.123c-14.077,14.073-32.153,32.154-39.725,39.721c-18.869,18.877-81.201-5.717-151.034,64.116
		c-45.302,45.306-77.384,77.385-92.482,92.486c-33.97,33.97-14.21,61.287,29.254,104.75c43.459,43.464,70.783,63.228,104.745,29.258
		c15.106-15.102,47.189-47.189,92.486-92.486c69.833-69.833,45.243-132.166,64.12-151.05c7.563-7.56,25.64-25.64,39.725-39.713
		c4.186,3.294,10.247,3.062,14.114-0.805c3.867-3.867,4.099-9.932,0.8-14.114c2.415-2.415,3.863-3.867,3.863-3.867
		c7.551-7.551,7.708-14.936-12.218-34.867C334.186,137.973,326.792,138.123,319.241,145.674z M97.424,414.569
		c-15.106-67.942-18.876-67.942,37.75-124.565c5.659,28.312,20.753,35.862,54.732,32.088c-3.78,33.978,3.776,49.072,32.083,54.731
		C165.365,433.446,165.369,429.67,97.424,414.569z"/>
	<polygon class="st0" points="367.75,9.277 348.291,0.001 314.644,107.546 326.668,111.936 	"/>
	<polygon class="st0" points="502.719,144.247 400.06,185.329 404.463,197.352 512,163.705 	"/>
</g>
</svg>