<!DOCTYPE svg PUBLIC "-//W3C//DTD SVG 1.1//EN" "http://www.w3.org/Graphics/SVG/1.1/DTD/svg11.dtd">
<!-- Uploaded to: SVG Repo, www.svgrepo.com, Transformed by: SVG Repo Mixer Tools -->
<svg height="800px" width="800px" version="1.1" id="Layer_1" xmlns="http://www.w3.org/2000/svg" xmlns:xlink="http://www.w3.org/1999/xlink" viewBox="0 0 512 512" xml:space="preserve" fill="#000000">
<g id="SVGRepo_bgCarrier" stroke-width="0"/>
<g id="SVGRepo_tracerCarrier" stroke-linecap="round" stroke-linejoin="round"/>
<g id="SVGRepo_iconCarrier"> <circle style="fill:#C1321F;" cx="256" cy="256" r="256"/> <path style="fill:#A82116;" d="M207.731,430.899l79.232,79.232c111.569-13.453,201.042-98.659,220.906-208.129l-176.08-176.08 l-71.192,69.741l-75.238,82.747l71.359,71.359v70.173L207.731,430.899z"/> <path style="fill:#FFFFFF;" d="M352.539,213.687c0-22.583-7.756-56.344-20.747-87.762H180.208 c-12.991,31.418-20.747,65.179-20.747,87.762c0,49.226,36.854,89.819,84.471,95.761v109.749h-36.202v11.702h96.539v-11.702h-36.202 V309.448C315.685,303.504,352.539,262.913,352.539,213.687z"/> <path style="fill:#E6F3FF;" d="M352.539,213.687c0-22.583-7.756-56.344-20.747-87.762h-76.366v304.974h48.843v-11.702h-36.202 V309.448C315.685,303.504,352.539,262.913,352.539,213.687z"/> <path style="fill:#D83E20;" d="M168.26,212.954c-0.005,0.372-0.024,0.765-0.024,1.131c0,48.469,39.293,87.762,87.762,87.762 s87.762-39.293,87.762-87.762c0-0.365-0.019-0.759-0.024-1.131L168.26,212.954L168.26,212.954z"/> <path style="fill:#C1321F;" d="M343.74,212.954h-88.314v88.878c0.193,0.002,0.381,0.014,0.574,0.014 c48.469,0,87.762-39.293,87.762-87.762C343.762,213.719,343.743,213.326,343.74,212.954z"/> </g>
</svg>